<svg width="36" height="50" viewBox="0 0 36 50" fill="none" xmlns="http://www.w3.org/2000/svg">
<path d="M26.025 18.7104H16.4667V0H26.025C31.1833 0 35.3792 4.19583 35.3792 9.35417C35.3792 14.5125 31.1833 18.7104 26.025 18.7104ZM19.5312 15.6458H26.025C29.4937 15.6458 32.3146 12.8229 32.3146 9.35625C32.3146 5.88958 29.4917 3.06667 26.025 3.06667H19.5312V15.6458ZM19.5312 18.7104H9.97499C4.81666 18.7104 0.620827 14.5146 0.620827 9.35625C0.620827 4.19792 4.81666 0 9.97499 0H19.5333V18.7104H19.5312ZM9.97499 3.06458C6.50624 3.06458 3.68541 5.8875 3.68541 9.35417C3.68541 12.8208 6.50624 15.6458 9.97499 15.6458H16.4687V3.06458H9.97499ZM19.5312 34.3542H9.97499C4.81666 34.3542 0.620827 30.1583 0.620827 25C0.620827 19.8417 4.81666 15.6458 9.97499 15.6458H19.5333V34.3542H19.5312ZM9.97499 18.7104C6.50624 18.7104 3.68541 21.5333 3.68541 25C3.68541 28.4667 6.50833 31.2896 9.97499 31.2896H16.4687V18.7104H9.97499ZM10.025 50C4.83958 50 0.618744 45.8042 0.618744 40.6458C0.618744 35.4875 4.81458 31.2917 9.97291 31.2917H19.5312V40.5438C19.5312 45.7583 15.2667 50 10.025 50ZM9.97499 34.3542C8.30757 34.3564 6.70907 35.0197 5.53002 36.1988C4.35097 37.3778 3.68762 38.9763 3.68541 40.6437C3.68541 44.1125 6.52916 46.9333 10.0271 46.9333C13.5792 46.9333 16.4708 44.0667 16.4708 40.5417V34.3542H9.97499ZM26.025 34.3542H25.8208C20.6625 34.3542 16.4667 30.1583 16.4667 25C16.4667 19.8417 20.6625 15.6458 25.8208 15.6458H26.025C31.1833 15.6458 35.3792 19.8417 35.3792 25C35.3792 30.1583 31.1833 34.3542 26.025 34.3542ZM25.8229 18.7104C22.3542 18.7104 19.5333 21.5333 19.5333 25C19.5333 28.4667 22.3562 31.2896 25.8229 31.2896H26.0271C29.4958 31.2896 32.3167 28.4667 32.3167 25C32.3167 21.5333 29.4937 18.7104 26.0271 18.7104H25.8229Z" fill="black"/>
</svg>
