<svg width="36" height="50" xmlns="http://www.w3.org/2000/svg"><path d="M26.025 18.71h-9.558V0h9.558c5.158 0 9.354 4.196 9.354 9.354 0 5.159-4.196 9.356-9.354 9.356zm-6.494-3.064h6.494a6.297 6.297 0 006.29-6.29 6.299 6.299 0 00-6.29-6.29h-6.494v12.58zm0 3.064H9.975c-5.158 0-9.354-4.195-9.354-9.354C.62 4.198 4.817 0 9.975 0h9.558v18.71h-.002zM9.975 3.065a6.297 6.297 0 00-6.29 6.29c0 3.466 2.821 6.29 6.29 6.29h6.494V3.066H9.975zm9.556 31.29H9.975C4.817 34.354.621 30.157.621 25s4.196-9.354 9.354-9.354h9.558v18.708h-.002zM9.975 18.71A6.297 6.297 0 003.685 25a6.299 6.299 0 006.29 6.29h6.494V18.71H9.975zm.05 31.29C4.84 50 .619 45.804.619 40.646c0-5.159 4.196-9.354 9.354-9.354h9.558v9.252c0 5.214-4.264 9.456-9.506 9.456zm-.05-15.646a6.298 6.298 0 00-6.29 6.29c0 3.468 2.844 6.29 6.342 6.29 3.552 0 6.444-2.867 6.444-6.392v-6.188H9.975zm16.05 0h-.204c-5.159 0-9.354-4.196-9.354-9.354 0-5.158 4.196-9.354 9.354-9.354h.204c5.158 0 9.354 4.196 9.354 9.354 0 5.158-4.196 9.354-9.354 9.354zm-.202-15.644a6.297 6.297 0 00-6.29 6.29 6.299 6.299 0 006.29 6.29h.204a6.297 6.297 0 006.29-6.29 6.299 6.299 0 00-6.29-6.29h-.204z" fill="#133A94" fill-rule="nonzero"/></svg>