<svg width="50" height="34" viewBox="0 0 50 34" fill="none" xmlns="http://www.w3.org/2000/svg">
<path d="M18.9125 0.260422C17.6875 0.260422 16.4604 0.862505 15.7583 2.06667L0.491663 28.3188C-0.908336 30.7271 0.84583 33.7375 3.64583 33.7375H15.5625C14.9443 33.2037 14.5328 32.4701 14.3996 31.6643C14.2664 30.8585 14.4198 30.0314 14.8333 29.3271L26.3896 9.50834L22.0646 2.06667C21.7455 1.51403 21.2858 1.05576 20.7321 0.738487C20.1784 0.421216 19.5506 0.256267 18.9125 0.260422ZM34.3437 6.34792C33.3292 6.34792 32.3167 6.83959 31.7354 7.82501L19.1042 29.3042C17.9437 31.2729 19.3917 33.7417 21.7104 33.7417H46.9812C49.3021 33.7417 50.7521 31.2729 49.5917 29.3042L36.9521 7.82501C36.6858 7.37088 36.3044 6.99502 35.8465 6.73532C35.3885 6.47563 34.8702 6.34128 34.3437 6.34584V6.34792Z" fill="black"/>
</svg>
