<?xml version="1.0" encoding="UTF-8"?>
<svg width="50px" height="34px" viewBox="0 0 50 34" version="1.1" xmlns="http://www.w3.org/2000/svg" xmlns:xlink="http://www.w3.org/1999/xlink">
    <title>nuxt-gradient</title>
    <defs>
        <linearGradient x1="27.9022335%" y1="27.5804488%" x2="78.8309076%" y2="72.4195512%" id="linearGradient-1">
            <stop stop-color="#919BFF" offset="0%"></stop>
            <stop stop-color="#133A94" offset="100%"></stop>
        </linearGradient>
    </defs>
    <g id="Page-1" stroke="none" stroke-width="1" fill="none" fill-rule="evenodd">
        <g id="nuxt-gradient" fill="url(#linearGradient-1)" fill-rule="nonzero">
            <path d="M18.9125,0.2603454 C17.6875,0.2603454 16.4604,0.862505 15.7583,2.06667 L0.491663,28.3188 C-0.908336,30.7271 0.84583,33.7375 3.64583,33.7375 L15.5625,33.7375 C14.9443,33.2037 14.5328,32.4701 14.3996,31.6643 C14.2664,30.8585 14.4198,30.0314 14.8333,29.3271 L26.3896,9.50834 L22.0646,2.06667 C21.7455,1.51403 21.2858,1.05576 20.7321,0.738487 C20.1784,0.421216 19.5506,0.256267 18.9125,0.2603454 Z M34.3437,6.34792 C33.3292,6.34792 32.3167,6.83959 31.7354,7.82501 L19.1042,29.3042 C17.9437,31.2729 19.3917,33.7417 21.7104,33.7417 L46.9812,33.7417 C49.3021,33.7417 50.7521,31.2729 49.5917,29.3042 L36.9521,7.82501 C36.6858,7.37088 36.3044,6.99502 35.8465,6.73532 C35.3885,6.47563 34.8702,6.34128 34.3437,6.34572767 L34.3437,6.34792 Z" id="Shape"></path>
        </g>
    </g>
</svg>