<svg width="50" height="46" viewBox="0 0 50 46" fill="none" xmlns="http://www.w3.org/2000/svg">
<path d="M25 0.604156L39.0625 14.4312V2.16666L25 0.604156ZM25 0.604156L12.3958 15.1875H37.6042L25 0.604156ZM25 0.604156L10.9375 2.16666V14.4312L25 0.604156ZM10.9375 2.16666L0 16.75L9.2 15.3333L10.9375 2.16666ZM0 16.75L24.9146 45.2979L24.9312 45.2687L9.25625 16.75H0ZM39.0625 2.16666L40.8 15.3333L50 16.75L39.0625 2.16666ZM50 16.75H40.6125L24.9396 45.2708L25 45.3958L50 16.75ZM25 45.3958L24.9354 45.2771L24.9188 45.3021L25 45.3958ZM11.325 16.75L24.9354 45.2625L38.675 16.75H11.325Z" fill="black"/>
</svg>
