<svg width="42" height="50" viewBox="0 0 42 50" fill="none" xmlns="http://www.w3.org/2000/svg">
<path d="M17.3734 44.0111C15.5409 44.4873 13.6064 44.3896 11.8311 43.7313C10.0558 43.073 8.52537 41.8857 7.44635 40.3299C6.78366 39.4028 6.31276 38.3527 6.06126 37.2411C5.80977 36.1296 5.78274 34.9791 5.98177 33.857C6.04962 33.4885 6.1429 33.1251 6.26093 32.7695L6.47968 32.1007L7.0776 32.5382C8.45515 33.5502 9.99532 34.3196 11.6318 34.8132L12.0651 34.9445L12.0234 35.3778C11.9714 35.9917 12.1382 36.6042 12.4943 37.107C12.8189 37.5759 13.2797 37.9338 13.8144 38.1324C14.349 38.331 14.9318 38.3606 15.4838 38.2174C15.7366 38.1503 15.9775 38.0449 16.1984 37.9049L27.8442 30.4841C28.1287 30.3044 28.3726 30.0675 28.5605 29.7885C28.7485 29.5095 28.8763 29.1944 28.9359 28.8633C28.9959 28.525 28.9879 28.1782 28.9124 27.843C28.8369 27.5079 28.6955 27.1911 28.4963 26.9112C28.1714 26.4425 27.7106 26.0848 27.176 25.8862C26.6414 25.6876 26.0588 25.6578 25.5067 25.8008C25.254 25.8679 25.013 25.9732 24.7921 26.1133L20.3484 28.9466C19.6178 29.4116 18.8204 29.7622 17.9838 29.9862C16.1515 30.4625 14.2171 30.3652 12.4419 29.7072C10.6667 29.0493 9.13606 27.8625 8.05676 26.307C7.39406 25.3795 6.92332 24.329 6.67217 23.2171C6.42103 22.1052 6.39454 20.9543 6.59426 19.832C6.79173 18.7323 7.21649 17.6858 7.84139 16.7596C8.4663 15.8334 9.2776 15.0477 10.2234 14.4529L21.8671 7.02997C22.5977 6.56478 23.3951 6.21419 24.2317 5.99039C26.0643 5.51425 27.9988 5.61193 29.774 6.27025C31.5493 6.92856 33.0798 8.1158 34.1588 9.67163C34.8215 10.5988 35.2924 11.6489 35.5439 12.7604C35.7954 13.8719 35.8224 15.0224 35.6234 16.1445C35.5552 16.513 35.4619 16.8763 35.3442 17.232L35.1254 17.9008L34.5296 17.4633C33.1517 16.4502 31.6108 15.6801 29.9734 15.1862L29.54 15.055L29.5817 14.6237C29.6339 14.0092 29.4671 13.3959 29.1109 12.8925C28.7859 12.4239 28.325 12.0664 27.7904 11.8682C27.2557 11.67 26.6731 11.6407 26.1213 11.7841C25.8686 11.8513 25.6276 11.9566 25.4067 12.0966L13.7609 19.5174C13.4763 19.6969 13.2322 19.9337 13.0443 20.2128C12.8563 20.4919 12.7286 20.8071 12.6692 21.1383C12.609 21.4765 12.6169 21.8234 12.6924 22.1586C12.7678 22.4938 12.9094 22.8106 13.1088 23.0904C13.4337 23.559 13.8945 23.9168 14.4291 24.1153C14.9637 24.3139 15.5463 24.3437 16.0984 24.2008C16.3519 24.1331 16.5936 24.027 16.8151 23.8862L21.2567 21.0529C21.9873 20.5882 22.7847 20.2384 23.6213 20.0154C25.4536 19.539 27.388 19.6364 29.1632 20.2943C30.9385 20.9522 32.4691 22.1391 33.5484 23.6945C34.2111 24.622 34.6818 25.6725 34.933 26.7844C35.1841 27.8963 35.2106 29.0472 35.0109 30.1695C34.8134 31.2695 34.3887 32.3163 33.7638 33.2429C33.1389 34.1694 32.3276 34.9555 31.3817 35.5507L19.738 42.9716C19.0075 43.4367 18.21 43.7873 17.3734 44.0111ZM38.9525 6.61539C34.3109 -0.0304271 25.1401 -1.99917 18.5109 2.22582L6.8651 9.64663C5.29239 10.6364 3.94349 11.9435 2.90462 13.4842C1.86575 15.0249 1.15976 16.7655 0.831778 18.5945C0.276107 21.6761 0.764381 24.8551 2.21927 27.6278C1.22207 29.1394 0.541695 30.8375 0.219279 32.6195C-0.112069 34.4854 -0.0675127 36.3987 0.350334 38.2472C0.76818 40.0956 1.55091 41.8421 2.65261 43.3841C7.29635 50.0299 16.4651 51.9986 23.0942 47.7757L34.74 40.3549C36.3129 39.3653 37.6619 38.0583 38.7008 36.5176C39.7397 34.9768 40.4456 33.2362 40.7734 31.407C41.3292 28.3256 40.8417 25.1469 39.3879 22.3737C40.3837 20.8618 41.0627 19.1637 41.3838 17.382C41.7159 15.5159 41.672 13.6023 41.2545 11.7534C40.837 9.90453 40.0543 8.15768 38.9525 6.61539V6.61539Z" fill="#133A94"/>
</svg>
