<svg width="50" height="30" xmlns="http://www.w3.org/2000/svg"><path d="M25.002 0c-6.667 0-10.833 3.333-12.5 10 2.5-3.333 5.417-4.583 8.75-3.75 1.902.475 3.26 1.854 4.767 3.383C28.47 12.121 31.306 15 37.502 15c6.667 0 10.833-3.333 12.5-10-2.5 3.333-5.417 4.583-8.75 3.75-1.902-.475-3.26-1.854-4.767-3.383C34.035 2.879 31.2 0 25.002 0zm-12.5 15C5.835 15 1.67 18.333.002 25c2.5-3.333 5.417-4.583 8.75-3.75 1.902.475 3.26 1.854 4.767 3.383C15.97 27.121 18.806 30 25.002 30c6.667 0 10.833-3.333 12.5-10-2.5 3.333-5.417 4.583-8.75 3.75-1.902-.475-3.26-1.854-4.767-3.383C21.535 17.879 18.7 15 12.502 15z" fill="#133A94" fill-rule="nonzero"/></svg>