<svg width="50" height="30" viewBox="0 0 50 30" fill="none" xmlns="http://www.w3.org/2000/svg">
<path d="M25.0021 0C18.3354 0 14.1687 3.33333 12.5021 10C15.0021 6.66667 17.9187 5.41667 21.2521 6.25C23.1542 6.725 24.5125 8.10417 26.0187 9.63333C28.4708 12.1208 31.3062 15 37.5021 15C44.1687 15 48.3354 11.6667 50.0021 5C47.5021 8.33333 44.5854 9.58333 41.2521 8.75C39.35 8.275 37.9917 6.89583 36.4854 5.36667C34.0354 2.87917 31.2 0 25.0021 0ZM12.5021 15C5.83541 15 1.66874 18.3333 0.0020752 25C2.50208 21.6667 5.41874 20.4167 8.75208 21.25C10.6542 21.725 12.0125 23.1042 13.5187 24.6333C15.9708 27.1208 18.8062 30 25.0021 30C31.6687 30 35.8354 26.6667 37.5021 20C35.0021 23.3333 32.0854 24.5833 28.7521 23.75C26.85 23.275 25.4917 21.8958 23.9854 20.3667C21.5354 17.8792 18.7 15 12.5021 15Z" fill="black"/>
</svg>
