<svg width="50" height="50" xmlns="http://www.w3.org/2000/svg"><path d="M44.727 14.219A22.412 22.412 0 0147.473 25c0 8.29-4.492 15.533-11.173 19.427l6.865-19.848c1.28-3.208 1.708-5.773 1.708-8.05 0-.844-.054-1.625-.146-2.312v.002zm-16.627.216c1.348-.062 2.567-.218 2.567-.218 1.212-.157 1.07-1.938-.14-1.873 0 0-3.656.281-6 .281-2.217 0-5.937-.313-5.937-.313-1.22-.062-1.378 1.782-.157 1.844 0 0 1.125.127 2.344.188l3.5 9.594-4.937 14.75-8.186-24.313c1.352-.063 2.571-.208 2.571-.208 1.219-.157 1.075-1.938-.135-1.867 0 0-3.638.287-5.988.287-.417 0-.912-.016-1.437-.03C10.23 6.561 17.156 2.53 25 2.53a22.378 22.378 0 0115.18 5.902c-.097-.006-.19-.018-.295-.018-2.208 0-3.775 1.923-3.775 3.987 0 1.854 1.07 3.423 2.209 5.273.856 1.5 1.854 3.423 1.854 6.202 0 1.906-.738 4.154-1.71 7.248l-2.24 7.469-8.125-24.188.002.03zM25 47.467c-2.206 0-4.335-.32-6.35-.91l6.744-19.597L32.3 45.892c.05.11.104.21.163.31A22.496 22.496 0 0125 47.471v-.004zM2.523 25c0-3.258.7-6.354 1.948-9.146l10.716 29.373C7.697 41.583 2.525 33.897 2.524 25zM25 0C11.219 0 0 11.219 0 25s11.219 25 25 25 25-11.219 25-25S38.781 0 25 0z" fill="#133A94" fill-rule="nonzero"/></svg>